<svg id="Layer_1" data-name="Layer 1" xmlns="http://www.w3.org/2000/svg" viewBox="0 0 169.97 37.36"><defs><style>.cls-1{fill:#212121;}</style></defs><title>logo1</title><path class="cls-1" d="M28.63,1,9.57,35.32h3.28c5,0,7.27-1,9.61-2.89,3.28-2.68,4.53-5,6.23-7.7h.44V36.57H.07V36.3L19.84,2.05H15.36A15.58,15.58,0,0,0,6.57,4.57c-1.91,1.37-3.82,4.26-5.63,7H.56V.69H28.63Z" transform="translate(-0.07 0.05)"/><path class="cls-1" d="M53.51,37.31c-10.27,0-17-7.37-17-18.68S43.24,0,53.51,0s17,7.37,17,18.68S63.83,37.31,53.51,37.31ZM57.66,2A6.35,6.35,0,0,0,53.51.83,6.21,6.21,0,0,0,49.41,2c-2.73,2.29-4.59,6.72-4.59,16.66S46.68,33,49.41,35.29a6.54,6.54,0,0,0,4.1,1.15,6.36,6.36,0,0,0,4.15-1.15c2.73-2.24,4.59-6.72,4.59-16.66S60.39,4.27,57.66,2Z" transform="translate(-0.07 0.05)"/><path class="cls-1" d="M100,33.13a6.82,6.82,0,0,1-5.55,2.61H93.34a5.62,5.62,0,0,1-3.65-1.14c-1.74-1.41-1.69-4.73-1.69-7V19h2c3.1,0,4.19.65,5.17,1.47A10.39,10.39,0,0,1,97.8,26h.33V11.23H97.8a10.39,10.39,0,0,1-2.67,5.61c-1,.82-2.07,1.47-5.17,1.47H88V9.63c0-2.23-.05-5.55,1.69-7a5.62,5.62,0,0,1,3.65-1.14h1.09A6.82,6.82,0,0,1,100,4.13,27.61,27.61,0,0,1,104.71,13H105V.65H75.81V.92a6.66,6.66,0,0,1,1.63.33A3.47,3.47,0,0,1,80,3.8a32.26,32.26,0,0,1,.6,7.29V26.17a32.26,32.26,0,0,1-.6,7.29A3.47,3.47,0,0,1,77.44,36a6.66,6.66,0,0,1-1.63.33v.27H105V24.26h-.33A27.61,27.61,0,0,1,100,33.13Z" transform="translate(-0.07 0.05)"/><path class="cls-1" d="M122.92,36.76c-.73,0-1.13-.47-1.15-1.62a3.24,3.24,0,0,0-.24-1.68c-.2-.27-.35-.43-1-.43H120l-.3,1.18a9.55,9.55,0,0,0-.33,1.67.57.57,0,0,0,.41.57,1.6,1.6,0,0,0,.39.1v.05H117.1v-.05a1.83,1.83,0,0,0,.32-.07,1.12,1.12,0,0,0,.64-.49,8.73,8.73,0,0,0,.63-1.89l.6-2.41a8.71,8.71,0,0,0,.32-1.58.57.57,0,0,0-.41-.57,1.59,1.59,0,0,0-.39-.1v0h3c1.48,0,2.11.5,2.11,1.36a2.3,2.3,0,0,1-1.44,1.9,3,3,0,0,1-1,.31v0a1.56,1.56,0,0,1,.77.31,1.88,1.88,0,0,1,.69,1.41c.11,1.16.13,1.69.5,1.69s.57-.43.65-.68l.11,0A1.27,1.27,0,0,1,122.92,36.76Zm-1-7.18h-.16a.94.94,0,0,0-.77.27,2.76,2.76,0,0,0-.38,1l-.49,2h.56a2,2,0,0,0,1.58-.47,3.26,3.26,0,0,0,.57-1.79C122.78,30,122.51,29.58,121.88,29.58Z" transform="translate(-0.07 0.05)"/><path class="cls-1" d="M128.43,33.35a7.54,7.54,0,0,1-2.11,1,5.89,5.89,0,0,0-.15,1.25c0,.53.24.79.56.79a2,2,0,0,0,1.56-1.18l.1.05a2.28,2.28,0,0,1-2,1.4c-.75,0-1.14-.7-1.14-1.52a3.56,3.56,0,0,1,1.24-2.59,2.26,2.26,0,0,1,1.38-.73c.7,0,.93.3.93.75A1,1,0,0,1,128.43,33.35ZM127.79,32c-.6,0-1.16,1.11-1.44,2.26a3.77,3.77,0,0,0,1.36-.79,1.65,1.65,0,0,0,.36-1C128.08,32.21,128,32,127.79,32Z" transform="translate(-0.07 0.05)"/><path class="cls-1" d="M132.85,36.71c-.31,0-.61-.15-.61-.73a3.46,3.46,0,0,1,.13-.61h0a3.85,3.85,0,0,1-.64.87,1.26,1.26,0,0,1-.94.48c-.46,0-1-.31-1-1.35,0-1.24,1.34-3.5,2.75-3.5.37,0,.6.27.66.68h0l.29-.58h.77l-.72,2.22a8.77,8.77,0,0,0-.46,1.78c0,.16.08.27.22.27.43,0,.89-.54,1.21-1l.11.05C134.21,35.91,133.58,36.71,132.85,36.71Zm-.33-4.7c-.38,0-.66.29-1,.79a7.62,7.62,0,0,0-.88,2.84c0,.48.18.68.41.68a1,1,0,0,0,.66-.37,3.43,3.43,0,0,0,.58-.8,6.2,6.2,0,0,0,.69-2.26C133,32.36,132.85,32,132.52,32Z" transform="translate(-0.07 0.05)"/><path class="cls-1" d="M138.78,29.55c-.11.29-.16.48-.33.94-1,2.88-1.36,3.77-1.36,3.77a11.24,11.24,0,0,0-.58,1.75c0,.14,0,.21.13.21.36,0,1-.52,1.29-1l.11.05a2.83,2.83,0,0,1-2,1.47c-.34,0-.53-.26-.53-.63a9.91,9.91,0,0,1,.66-2c.25-.7,1.26-3.5,1.37-3.77a2.8,2.8,0,0,0,.2-.7.44.44,0,0,0-.1-.35.7.7,0,0,0-.39-.13v-.05h1.55a.05.05,0,0,1,.05.05A1.91,1.91,0,0,1,138.78,29.55Z" transform="translate(-0.07 0.05)"/><path class="cls-1" d="M148.45,31.5h-.07a3.49,3.49,0,0,0-.5-1.43,1.2,1.2,0,0,0-1-.49h-.12c-.8,0-1.12.58-1.29,1.29l-.47,1.91h.25c.63,0,.93,0,1.18-.26a3.08,3.08,0,0,0,.76-1.16h.07l-.77,3h-.07a1.78,1.78,0,0,0-.15-1.12c-.13-.18-.37-.33-1-.33h-.32l-.41,1.6a5.17,5.17,0,0,0-.22,1.18c0,.54.3.69.81.69h.15a2.59,2.59,0,0,0,1.52-.61,6.08,6.08,0,0,0,1.31-1.5h.08l-.8,2.29h-5.48l0-.05a2.56,2.56,0,0,0,.38-.07,1.12,1.12,0,0,0,.64-.49,8.75,8.75,0,0,0,.63-1.89l.6-2.41a8.68,8.68,0,0,0,.32-1.57.57.57,0,0,0-.39-.58,1.59,1.59,0,0,0-.41-.09V29.4h4.81Z" transform="translate(-0.07 0.05)"/><path class="cls-1" d="M152.27,33.13a.38.38,0,0,1-.38-.34c0-.21.09-.31,0-.48a.4.4,0,0,0-.43-.32c-.49,0-.65.38-.65.77a2.15,2.15,0,0,0,.57,1.15c.5.71.8,1,.8,1.4a1.5,1.5,0,0,1-1.6,1.38,1.15,1.15,0,0,1-1.27-1c0-.35.19-.61.47-.61a.38.38,0,0,1,.41.39c0,.31-.21.41-.21.61,0,.36.32.5.61.5a.8.8,0,0,0,.8-.89c0-.38-.31-.64-.76-1.24a2,2,0,0,1-.53-1.34,1.32,1.32,0,0,1,1.41-1.25c.59,0,1.1.35,1.1.81A.41.41,0,0,1,152.27,33.13Z" transform="translate(-0.07 0.05)"/><path class="cls-1" d="M156.79,32.13h-1c-.54,1.72-.69,2.12-.69,2.12a14.91,14.91,0,0,0-.53,1.77c0,.14.05.2.14.2.36,0,.9-.52,1.23-1l.1.05c-.4.67-1.11,1.47-1.84,1.47a.51.51,0,0,1-.54-.58,12.46,12.46,0,0,1,.61-2s.14-.37.64-1.94h-.59l0-.18h.6l.5-1.63h.88l-.5,1.63h1Z" transform="translate(-0.07 0.05)"/><path class="cls-1" d="M160.3,36.71c-.31,0-.61-.15-.61-.73a3.48,3.48,0,0,1,.13-.61h0a3.85,3.85,0,0,1-.64.87,1.26,1.26,0,0,1-.94.48c-.46,0-1-.31-1-1.35,0-1.24,1.34-3.5,2.75-3.5.37,0,.6.27.66.68h0l.28-.58h.77L161,34.17a8.75,8.75,0,0,0-.46,1.78c0,.16.08.27.22.27.43,0,.89-.54,1.21-1l.11.05C161.66,35.91,161,36.71,160.3,36.71ZM160,32c-.38,0-.66.29-1,.79a7.62,7.62,0,0,0-.88,2.84c0,.48.18.68.41.68a1,1,0,0,0,.66-.37,3.44,3.44,0,0,0,.58-.8,6.2,6.2,0,0,0,.69-2.26C160.46,32.36,160.3,32,160,32Z" transform="translate(-0.07 0.05)"/><path class="cls-1" d="M166,32.13h-1c-.54,1.72-.69,2.12-.69,2.12a14.91,14.91,0,0,0-.53,1.77c0,.14.05.2.14.2.36,0,.9-.52,1.23-1l.1.05c-.39.67-1.11,1.47-1.84,1.47a.51.51,0,0,1-.54-.58,12.46,12.46,0,0,1,.61-2s.14-.37.64-1.94h-.59l0-.18h.6l.5-1.63h.88l-.5,1.63h1Z" transform="translate(-0.07 0.05)"/><path class="cls-1" d="M169.63,33.35a7.53,7.53,0,0,1-2.11,1,5.87,5.87,0,0,0-.15,1.25c0,.53.24.79.56.79a2,2,0,0,0,1.56-1.18l.1.05a2.28,2.28,0,0,1-2,1.4c-.75,0-1.14-.7-1.14-1.52a3.56,3.56,0,0,1,1.24-2.59,2.26,2.26,0,0,1,1.38-.73c.7,0,.93.3.93.75A1,1,0,0,1,169.63,33.35ZM169,32c-.6,0-1.16,1.11-1.44,2.26a3.77,3.77,0,0,0,1.36-.79,1.65,1.65,0,0,0,.36-1C169.28,32.21,169.19,32,169,32Z" transform="translate(-0.07 0.05)"/></svg>